<svg xmlns="http://www.w3.org/2000/svg" xmlns:xlink="http://www.w3.org/1999/xlink" width="256" zoomAndPan="magnify" viewBox="0 0 192 191.999996" height="256" preserveAspectRatio="xMidYMid meet" version="1.0"><defs><clipPath id="373083e067"><path d="M 0.523438 0 L 191.773438 0 L 191.773438 192 L 0.523438 192 Z M 0.523438 0 " clip-rule="nonzero"/></clipPath></defs><g clip-path="url(#373083e067)"><path fill="#65cf72" d="M 163.890625 27.980469 C 145.914062 10.011719 122.007812 0.101562 96.539062 0.101562 C 44.054688 0.101562 1.339844 42.738281 1.320312 95.15625 C 1.320312 111.90625 5.703125 128.269531 14.035156 142.679688 L 0.523438 191.9375 L 51 178.714844 C 64.910156 186.292969 80.566406 190.277344 96.5 190.285156 L 96.539062 190.285156 C 149.011719 190.285156 191.734375 147.640625 191.746094 95.230469 C 191.746094 69.828125 181.863281 45.953125 163.878906 27.980469 Z M 96.539062 174.238281 L 96.507812 174.238281 C 82.316406 174.238281 68.378906 170.425781 56.226562 163.222656 L 53.339844 161.507812 L 23.382812 169.351562 L 31.371094 140.195312 L 29.492188 137.207031 C 21.566406 124.628906 17.386719 110.085938 17.398438 95.15625 C 17.414062 51.597656 52.921875 16.148438 96.566406 16.148438 C 117.707031 16.148438 137.570312 24.382812 152.515625 39.324219 C 167.460938 54.253906 175.679688 74.105469 175.667969 95.222656 C 175.652344 138.789062 140.148438 174.238281 96.527344 174.238281 Z M 139.945312 115.066406 C 137.570312 113.878906 125.875 108.132812 123.691406 107.34375 C 121.507812 106.546875 119.929688 106.160156 118.34375 108.53125 C 116.753906 110.910156 112.195312 116.261719 110.808594 117.84375 C 109.421875 119.429688 108.035156 119.628906 105.648438 118.433594 C 103.273438 117.246094 95.605469 114.734375 86.515625 106.644531 C 79.445312 100.34375 74.667969 92.566406 73.28125 90.183594 C 71.894531 87.804688 73.136719 86.523438 74.324219 85.339844 C 75.390625 84.277344 76.699219 82.558594 77.898438 81.175781 C 79.085938 79.789062 79.484375 78.792969 80.273438 77.210938 C 81.070312 75.625 80.671875 74.238281 80.074219 73.042969 C 79.476562 71.859375 74.722656 60.164062 72.738281 55.410156 C 70.808594 50.78125 68.84375 51.40625 67.390625 51.332031 C 66.003906 51.265625 64.417969 51.246094 62.828125 51.246094 C 61.242188 51.246094 58.667969 51.835938 56.484375 54.214844 C 54.296875 56.597656 48.160156 62.34375 48.160156 74.03125 C 48.160156 85.71875 56.683594 97.015625 57.878906 98.609375 C 59.066406 100.191406 74.65625 124.183594 98.523438 134.472656 C 104.195312 136.921875 108.632812 138.382812 112.089844 139.480469 C 117.792969 141.292969 122.980469 141.039062 127.074219 140.421875 C 131.644531 139.738281 141.144531 134.671875 143.128906 129.125 C 145.117188 123.574219 145.117188 118.824219 144.515625 117.828125 C 143.917969 116.832031 142.332031 116.242188 139.957031 115.046875 Z M 139.945312 115.066406 " fill-opacity="1" fill-rule="evenodd"/></g></svg>